# xmcd
# 
# Track frame offsets:
#     183
#     17433
#     33258
#     58083
# 
# Disc length: 976
# 
# Revision: 7
# Processed by: cddbd v1.5.2PL0 Copyright (c) Steve Scherf et al.
# Submitted via: fre:ac v1.0.27
# 
DISCID=2603ce04
DTITLE=Sam Brown - S 1
DYEAR=1990
DGENRE=Top 40
TTITLE0=With A Little Love
TTITLE1=Long Way Down
TTITLE2=Window People
TTITLE3=Dolly Mixture
EXTD=
EXTT0=
EXTT1=
EXTT2=
EXTT3=
PLAYORDER=
